# xmcd
#
# Track frame offsets: 
#        150
#        18935
#        37848
#        53463
#        70003
#        84680
#        101323
#        119830
#        135093
#        148505
#        166828
#
# Disc length: 2373 seconds
#
# Revision: 7
# Processed by: cddbd v1.5.2PL0 Copyright (c) Steve Scherf et al.
# Submitted via: ExactAudioCopyFreeDBPlugin 1.0
#
DISCID=7f09430b
DTITLE=Pino Daniele - Bella 'Mbriana
DYEAR=1994
DGENRE=Pop
TTITLE0=Annarè
TTITLE1=Tutta 'nata Storia
TTITLE2=Bella 'mbriana
TTITLE3=Tarumbò
TTITLE4=I Got The Blues
TTITLE5=Mo Basta
TTITLE6=Io Vivo Come Te
TTITLE7=Ma Che Mania
TTITLE8=Toledo
TTITLE9=E Pò Che Fà
TTITLE10=Maggio Se Ne Va
EXTD=Personnel:\nPino Daniele, voice, electric and acoustic guitar;\nJ
EXTD=oe Amoruso, Keyboards;\nAlfonso Johnson, bass;\nWayne Shorter, sa
EXTD=x;\nTullio De Piscopo drums, percussion\nRosario Jermano percussi
EXTD=on YEAR: 1982
EXTT0=
EXTT1=
EXTT2=
EXTT3=
EXTT4=
EXTT5=
EXTT6=
EXTT7=
EXTT8=
EXTT9=
EXTT10=
PLAYORDER=
